<svg xmlns="http://www.w3.org/2000/svg" width="44" height="35.988" viewBox="0 0 44 35.988">
  <path id="graduation-cap" d="M24,6.012a7.152,7.152,0,0,0-3.027.672L2.865,15.139a1.5,1.5,0,0,0,0,2.719l18.107,8.455a7.045,7.045,0,0,0,6.055,0L34,23.057V35.5a2.5,2.5,0,1,0,3,0V21.836a1.5,1.5,0,0,0-.24-1.07q-.035-.052-.074-.1a1.5,1.5,0,0,0-.771-.525l0,0-9.643-4.471A1,1,0,0,1,26,15a.985.985,0,0,1,.094-.418,1,1,0,0,1,1.328-.486l10.435,4.838A1.973,1.973,0,0,1,39,20.723l6.135-2.865c.02-.009.026-.018.043-.027a1.493,1.493,0,0,0-.043-2.691L27.027,6.684A7.152,7.152,0,0,0,24,6.012ZM10,24.4V34.529a5.479,5.479,0,0,0,3.168,4.986A25.508,25.508,0,0,0,23.922,42h.084a25.888,25.888,0,0,0,8.226-1.422A4.437,4.437,0,0,1,32,34.7V27.2l-4.127,1.926a9.027,9.027,0,0,1-7.746,0Z" transform="translate(-2 -6.012)" fill="#8ad63e"/>
</svg>
